# xmcd CD database file
#
# Track frame offsets:
#	150
#	24061
#	45650
#	66363
#	87650
#	107075
#	130220
#	150478
#	169325
#	194600
#	222929
#	255267
#	277025
#
# Disc length: 3939 seconds
#
# Revision: 0
# Processed by: cddbd v1.5.1PL0 Copyright (c) Steve Scherf et al.
# Submitted via: CDex 1.50Beta5
#
DISCID=b70f610d
DTITLE=New Age 136 - Clean
DYEAR=2002
DGENRE=New Age
TTITLE0=Terry Oldfield - After the rain
TTITLE1=Corciolli - Book of memories
TTITLE2=Danny Gottlieb - Vision
TTITLE3=Nacho Sotomayor - Don't do anything
TTITLE4=Marcator and Mummert - Octopus
TTITLE5=Antonio Buldini - Catch the clouds
TTITLE6=Black Connection - Much Love
TTITLE7=Francesco Spagnolo - L'ultima Estate
TTITLE8=Will Millar and Paul Horn - A fighting Race
TTITLE9=Corciolli - Hipnotize me
TTITLE10=Honeyroot - Summer sky
TTITLE11=Capitanata - Campi al lago
TTITLE12=Susanna Parigi - Dal cielo invisibile scende in forma di suono ...
EXTD=YEAR: 2002
EXTT0=
EXTT1=
EXTT2=
EXTT3=
EXTT4=
EXTT5=
EXTT6=
EXTT7=
EXTT8=
EXTT9=
EXTT10=
EXTT11=
EXTT12=
PLAYORDER=
